<?xml version="1.0" encoding="utf-8"?>
<!-- Generator: Adobe Illustrator 20.1.0, SVG Export Plug-In . SVG Version: 6.00 Build 0)  -->
<svg version="1.1" id="Layer_1" xmlns="http://www.w3.org/2000/svg" xmlns:xlink="http://www.w3.org/1999/xlink" x="0px" y="0px"
	 viewBox="0 0 910.1 355.2" style="enable-background:new 0 0 910.1 355.2;" xml:space="preserve">
<style type="text/css">
	.st0{fill:#FBFBFB;}
	.st1{font-family:'Roboto-Regular';}
	.st2{font-size:30px;}
	.st3{font-size:20px;}
	.st4{fill:none;stroke:#FBFBFB;stroke-width:2;stroke-miterlimit:10;}
</style>
<text transform="matrix(1 0 0 1 373.9691 211.4867)" class="st0 st1 st2">Customer</text>
<text transform="matrix(1 0 0 1 721.928 58.4256)" class="st0 st1 st3">Feedback?</text>
<text transform="matrix(1 0 0 1 93.357 17.6094)" class="st0 st1 st3">What is the problem we are solving for...</text>
<text transform="matrix(1 0 0 1 0.4999 140.0581)" class="st0 st1 st3">Could we do it better?</text>
<text transform="matrix(1 0 0 1 653.5607 349.2421)" class="st0 st1 st3">How can we make this easy?</text>
<text transform="matrix(1 0 0 1 31.1118 343.1191)" class="st0 st1 st3">What are they used to?</text>
<g>
	<g>
		<path class="st4" d="M430.7,29c6.6,7.5,69.8,81.9,43.9,136.7c-0.9,1.9-1.9,3.7-3,5.6"/>
		<g>
			<path class="st0" d="M464.4,181c1.6-5.8,2.9-13.7,2.3-19.4l5.7,8.4l9.7,2.8C476.5,174,469.4,177.6,464.4,181z"/>
		</g>
	</g>
</g>
<g>
	<g>
		<path class="st4" d="M107.6,163.5c4.3,5.4,87.6,107.6,192.9,87.8c22.7-4.3,41.9-13.4,57.5-23.6"/>
		<g>
			<path class="st0" d="M367.8,220.7c-3.5,5-7.2,12-8.6,17.6l-2.6-9.8l-8.3-5.8C354.1,223.3,362,222.2,367.8,220.7z"/>
		</g>
	</g>
</g>
<g>
	<g>
		<path class="st4" d="M259.7,338c44.9,17.7,95.3,10.9,131.6-18.4c34.7-27.9,44.2-66.1,46.9-85.9"/>
		<g>
			<path class="st0" d="M439.3,221.7c1.6,5.9,4.5,13.2,7.9,17.9l-9.2-4.3l-9.8,2.5C432.4,233.8,436.7,227.2,439.3,221.7z"/>
		</g>
	</g>
</g>
<g>
	<g>
		<path class="st4" d="M714.8,309.4c-5.6-61.6-44.5-112.2-96.9-127.6c-37.6-11-71.2-0.7-89.1,7"/>
		<g>
			<path class="st0" d="M517.8,194.1c4.2-4.3,9.1-10.6,11.4-15.9l1,10.1l7.2,7.1C531.8,193.9,523.9,193.6,517.8,194.1z"/>
		</g>
	</g>
</g>
<g>
	<g>
		<path class="st4" d="M697.4,52.3c-72-32.7-103.8-25.9-119.4-13.3c-18.6,15.1-16.2,40.1-45.9,96.9c-6.8,13.1-13.4,24.1-18.9,32.8"
			/>
		<g>
			<path class="st0" d="M506.6,178.8c1.3-5.9,2-13.8,1.2-19.5l6.2,8l9.9,2.2C518.3,171.2,511.5,175.2,506.6,178.8z"/>
		</g>
	</g>
</g>
</svg>
